<svg xmlns="http://www.w3.org/2000/svg" xmlns:xlink="http://www.w3.org/1999/xlink" width="75" height="75" viewBox="0 0 75 75">
  <defs>
    <clipPath id="clip-custom_1">
      <rect width="75" height="75"/>
    </clipPath>
  </defs>
  <g id="custom_1" data-name="custom – 1" clip-path="url(#clip-custom_1)">
    <rect width="75" height="75" fill="#fff"/>
    <g id="Group_1" data-name="Group 1">
      <g id="Path_1" data-name="Path 1" transform="translate(10 8)" fill="none">
        <path d="M3.75,0h47.5C53.321,0,55,2.08,55,4.646V50.354C55,52.92,53.321,55,51.25,55H44.439v9.555L31.9,55H3.75C1.679,55,0,52.92,0,50.354V4.646C0,2.08,1.679,0,3.75,0Z" stroke="none"/>
        <path d="M 4.133632659912109 3.999992370605469 C 4.069816589355469 4.131290435791016 4 4.347797393798828 4 4.64593505859375 L 4 50.35406494140625 C 4 50.65219879150391 4.069816589355469 50.86870574951172 4.133632659912109 51.00000381469727 L 31.89737701416016 51.00000381469727 L 33.24750518798828 51.00000381469727 L 34.32147216796875 51.81821441650391 L 40.43870544433594 56.47872543334961 L 40.43870544433594 55.00000381469727 L 40.43870544433594 51.00000381469727 L 44.43870544433594 51.00000381469727 L 50.86636734008789 51.00000381469727 C 50.93018341064453 50.86870574951172 51 50.65219879150391 51 50.35406494140625 L 51 4.64593505859375 C 51 4.347797393798828 50.93018341064453 4.131290435791016 50.86636734008789 3.999992370605469 L 4.133632659912109 3.999992370605469 M 3.75 -7.62939453125e-06 C 3.75 -7.62939453125e-06 27.32355308532715 -7.62939453125e-06 51.25 -7.62939453125e-06 C 53.32106018066406 -7.62939453125e-06 55 2.080051422119141 55 4.64593505859375 L 55 50.35406494140625 C 55 52.91994476318359 53.32107162475586 55.00000381469727 51.25 55.00000381469727 L 44.43870544433594 55.00000381469727 L 44.43870544433594 64.55480194091797 L 31.89737701416016 55.00000381469727 L 3.75 55.00000381469727 C 1.678928375244141 55.00000381469727 0 52.91994476318359 0 50.35406494140625 L 0 4.64593505859375 C 0 2.080051422119141 1.678928375244141 -7.62939453125e-06 3.75 -7.62939453125e-06 Z" stroke="none" fill="#707070"/>
      </g>
      <path id="Path_3" data-name="Path 3" d="M0,0H22.21V4.032H0Z" transform="translate(21 7.964)" fill="#fff"/>
      <path id="Path_2" data-name="Path 2" d="M0,0H14.213V25.536L7.156,19.653,0,25.536Z" transform="translate(25 7.964)"/>
    </g>
  </g>
</svg>
